# xmcd
#
# Track frame offsets:
# 150
# 12435
# 23620
# 33285
# 43258
# 51465
# 60290
# 72888
# 83200
# 93825
# 102390
# 110710
# 120998
# 130970
# 140583
# 151443
# 164185
# 174423
# 184650
# 195193
#
# Disc length: 2736 seconds
#
# Revision: 0
# Processed by: cddbd v1.4PL0 Copyright (c) Steve Scherf et al.
# Submitted via: Axialis_AX_CDPlayer 2.6
#
DISCID=0e0aae14
DTITLE=Songs Of America - Bronco Buster Mono CD #9013
DYEAR=1900
DGENRE=
TTITLE0=A Penny For Your Thoughts
TTITLE1=Address Unknown
TTITLE2=All Alone In This World Without You
TTITLE3=Cattle Call
TTITLE4=Columbus Stockade Blues
TTITLE5=Don't Bother To Cry
TTITLE6=Drunkard's Child
TTITLE7=I Couldn't Believe It Was True
TTITLE8=I'll Never Let You Go Little Darling
TTITLE9=I Talk To Myself About You
TTITLE10=I Want To Be Sure
TTITLE11=I Wish All My Children Were Babies Again
TTITLE12=I'll Have To Live And Learn
TTITLE13=I'll Step Aside
TTITLE14=In My Heart You'll Always Be Mine
TTITLE15=Land, Sky And Water
TTITLE16=I Hang My Head And Cry
TTITLE17=A Sinner's Prayer
TTITLE18=What A Fool I Was (To Ever Let You Go)
TTITLE19=M-O-T-H-E-R (A Word That Means The World To Me)
EXTD=
EXTT0=
EXTT1=
EXTT2=
EXTT3=
EXTT4=
EXTT5=
EXTT6=
EXTT7=
EXTT8=
EXTT9=
EXTT10=
EXTT11=
EXTT12=
EXTT13=
EXTT14=
EXTT15=
EXTT16=
EXTT17=
EXTT18=
EXTT19=
PLAYORDER=
